<svg width="40" height="40" viewBox="0 0 40 41" fill="#53C8A4" xmlns="http://www.w3.org/2000/svg">
<path d="M37.4436 17.5087C36.2653 17.5087 35.2799 18.3146 34.9974 19.4029L31.5177 19.2721C31.242 17.3571 30.491 15.5593 29.3402 14.0025L31.7037 11.4539C32.6753 12.0256 33.9432 11.8947 34.77 11.0613C35.2455 10.586 35.5073 9.95226 35.5073 9.27722C35.5073 8.60217 35.2455 7.96845 34.77 7.49316L33.447 6.17062C32.4961 5.22004 30.8286 5.22004 29.8777 6.17062C29.4022 6.64591 29.1404 7.27963 29.1404 7.95467C29.1404 8.41619 29.2644 8.85015 29.4918 9.23589L26.9423 11.5986C25.3919 10.4413 23.5935 9.6974 21.671 9.42187L21.5401 5.94331C22.6288 5.66089 23.435 4.67587 23.435 3.49798C23.435 2.10656 22.3049 0.970001 20.9061 0.970001H19.0388C17.6469 0.970001 16.5099 2.09967 16.5099 3.49798C16.5099 4.66899 17.3161 5.66089 18.4048 5.94331L18.2739 9.42187C16.3583 9.6974 14.5599 10.4413 13.0026 11.5986L10.4531 9.23589C11.025 8.27153 10.8941 6.99721 10.0603 6.17062C9.07494 5.1856 7.47631 5.1856 6.49096 6.17062L5.16796 7.49316C4.1826 8.47818 4.1826 10.0763 5.16796 11.0613C6.00172 11.8947 7.2696 12.0187 8.23428 11.4539L10.6047 14.0025C9.44703 15.5524 8.70284 17.3502 8.42722 19.2721L4.94746 19.4029C4.66494 18.3146 3.67959 17.5087 2.50129 17.5087C1.13006 17.5087 0 18.6383 0 20.0366V21.9034C0 23.2948 1.13006 24.4313 2.52885 24.4313C3.70026 24.4313 4.69251 23.6254 4.97502 22.5371L8.45478 22.668C8.73041 24.5829 9.47459 26.3807 10.6322 27.9375L8.26873 30.4861C7.29716 29.9144 6.02929 30.0453 5.20241 30.8787C4.21705 31.8637 4.21705 33.4618 5.20241 34.4468L6.52541 35.7694C7.51077 36.7544 9.10939 36.7544 10.0947 35.7694C10.9285 34.9359 11.0525 33.6685 10.4875 32.7041L13.037 30.3414C14.5874 31.4987 16.3859 32.2426 18.3084 32.5181L18.4393 35.9967C17.3506 36.2791 16.5444 37.2641 16.5444 38.442C16.5444 39.8334 17.6744 40.97 19.0732 40.97H20.9406C22.3325 40.97 23.4694 39.8403 23.4694 38.442C23.4694 37.271 22.6632 36.2791 21.5745 35.9967L21.7054 32.5181C23.621 32.2426 25.4195 31.4987 26.9767 30.3414L29.5263 32.7041C29.2989 33.0899 29.1748 33.5307 29.1748 33.9853C29.1748 34.6604 29.4367 35.2941 29.9121 35.7694C30.863 36.72 32.5306 36.72 33.4815 35.7694L34.8045 34.4468C35.2799 33.9715 35.5418 33.3378 35.5418 32.6628C35.5418 31.9877 35.2799 31.354 34.8045 30.8787C33.9776 30.0521 32.7028 29.9213 31.7382 30.4861L29.3678 27.9375C30.5254 26.3876 31.2696 24.5898 31.5452 22.668L35.025 22.5371C35.3075 23.6254 36.2929 24.4313 37.4711 24.4313C38.8631 24.4313 40 23.3017 40 21.9034V20.0366C39.9655 18.6383 38.8355 17.5087 37.4436 17.5087ZM38.5874 21.8965C38.5874 22.5302 38.0706 23.0468 37.4367 23.0468C36.8028 23.0468 36.286 22.5302 36.286 21.8965V21.8138C36.286 21.6278 36.2102 21.4487 36.0724 21.3179C35.9345 21.187 35.7554 21.1181 35.5693 21.125L30.8699 21.2972C30.5254 21.311 30.2429 21.5796 30.2084 21.924C30.0155 23.9905 29.2162 25.9261 27.8932 27.5173C27.6727 27.7859 27.6865 28.1717 27.9208 28.4265L31.118 31.8706C31.2489 32.0084 31.4212 32.0842 31.6141 32.0911C31.8002 32.0979 31.9862 32.0222 32.1171 31.8844L32.1723 31.8293C32.6202 31.3816 33.3506 31.3816 33.7984 31.8293C34.2463 32.277 34.2463 33.0072 33.7984 33.448L32.4755 34.7706C32.0413 35.2045 31.2834 35.2045 30.8562 34.7706C30.6425 34.5571 30.5185 34.2677 30.5185 33.9578C30.5185 33.6478 30.6357 33.3654 30.8562 33.145L30.9113 33.0899C31.0422 32.959 31.118 32.7799 31.1111 32.587C31.1042 32.3941 31.0284 32.2219 30.8906 32.0979L27.4453 28.9018C27.1904 28.6676 26.8045 28.6538 26.5357 28.8743C24.944 30.1968 23.0078 30.9958 20.9406 31.1887C20.596 31.2231 20.3273 31.5056 20.3135 31.85L20.1413 36.5477C20.1344 36.7337 20.2033 36.9197 20.3342 37.0506C20.4651 37.1815 20.6443 37.2641 20.8303 37.2641H20.913C21.5469 37.2641 22.0637 37.7807 22.0637 38.4145C22.0637 39.0482 21.5469 39.5648 20.913 39.5648H19.0457C18.4117 39.5648 17.8949 39.0482 17.8949 38.4145C17.8949 37.7807 18.4117 37.2641 19.0457 37.2641H19.1283C19.3144 37.2641 19.4935 37.1884 19.6245 37.0506C19.7554 36.9128 19.8243 36.7337 19.8174 36.5477L19.6451 31.85C19.6314 31.5056 19.3626 31.2231 19.0181 31.1887C16.9509 30.9958 15.0146 30.1968 13.4229 28.8743C13.1542 28.6538 12.7683 28.6676 12.5134 28.9018L9.06804 32.0979C8.93023 32.2288 8.85444 32.401 8.84755 32.587C8.84755 32.773 8.91645 32.9521 9.04737 33.0899L9.1025 33.145C9.55039 33.5927 9.55039 34.3228 9.1025 34.7637C8.65461 35.2114 7.9242 35.2114 7.4832 34.7637L6.16021 33.4412C5.71232 32.9934 5.71232 32.2633 6.16021 31.8224C6.6081 31.3747 7.3385 31.3747 7.7795 31.8224L7.83463 31.8775C7.96555 32.0084 8.15159 32.0773 8.33764 32.0773C8.52369 32.0773 8.70284 31.9946 8.83376 31.8569L12.031 28.4127C12.2653 28.1579 12.2791 27.7721 12.0586 27.5035C10.7356 25.9054 9.93626 23.9767 9.74332 21.9102C9.70887 21.5658 9.42636 21.2972 9.08183 21.2834L4.38243 21.1112C4.18949 21.0974 4.01034 21.1732 3.87941 21.3041C3.7416 21.435 3.66581 21.6141 3.66581 21.8V21.8827C3.66581 22.5164 3.14901 23.033 2.51507 23.033C1.88114 23.033 1.37812 22.5302 1.37812 21.8965V20.0298C1.37812 19.396 1.89492 18.8794 2.52885 18.8794C3.16279 18.8794 3.67959 19.396 3.67959 20.0298V20.1124C3.67959 20.2984 3.75538 20.4775 3.8932 20.6084C4.03101 20.7392 4.21016 20.8081 4.39621 20.8012L9.09561 20.629C9.44014 20.6153 9.72265 20.3466 9.75711 20.0022C9.95004 17.9357 10.7494 16.0001 12.0724 14.409C12.2929 14.1403 12.2791 13.7546 12.0448 13.4997L8.84755 10.0556C8.71662 9.91782 8.54436 9.84205 8.35142 9.83516C8.17227 9.82828 7.98622 9.90405 7.84841 10.0349L7.79328 10.09C7.34539 10.5378 6.61499 10.5378 6.17399 10.09C5.7261 9.64229 5.7261 8.91214 6.17399 8.47129L7.49699 7.14875C7.94488 6.70101 8.67528 6.70101 9.11628 7.14875C9.56417 7.59649 9.56417 8.32664 9.11628 8.76749L9.06115 8.82259C8.93023 8.95347 8.85444 9.13256 8.86133 9.32543C8.86133 9.51142 8.94401 9.69051 9.08183 9.82139L12.5271 13.0175C12.7821 13.2517 13.168 13.2655 13.4367 13.0451C15.0353 11.7225 16.9647 10.9235 19.0319 10.7306C19.3764 10.6962 19.6451 10.4138 19.6589 10.0694L19.8312 5.37159C19.8381 5.1856 19.7692 4.99962 19.6382 4.86874C19.5073 4.73787 19.3282 4.65521 19.1421 4.65521H19.0594C18.4255 4.65521 17.9087 4.13859 17.9087 3.50487C17.9087 2.87115 18.4186 2.36831 19.0525 2.36831H20.9199C21.5538 2.36831 22.0706 2.88493 22.0706 3.51865C22.0706 4.15237 21.5538 4.66899 20.9199 4.66899H20.8372C20.6512 4.66899 20.472 4.74476 20.3411 4.88252C20.2102 5.02028 20.1413 5.19938 20.1481 5.38536L20.3204 10.0831C20.3342 10.4276 20.6029 10.71 20.9475 10.7444C23.0146 10.9373 24.9509 11.7363 26.5426 13.0589C26.8114 13.2793 27.1972 13.2655 27.4522 13.0313L30.8975 9.83516C31.0353 9.70429 31.1111 9.53208 31.118 9.33921C31.1249 9.14634 31.0491 8.97413 30.9182 8.83637L30.8631 8.78126C30.6494 8.56773 30.5254 8.27842 30.5254 7.96845C30.5254 7.65848 30.6426 7.37606 30.8631 7.15564C31.2972 6.72168 32.0551 6.72168 32.4823 7.15564L33.8053 8.47818C34.019 8.69172 34.143 8.98102 34.143 9.29099C34.143 9.60096 34.0258 9.88338 33.8053 10.1038C33.3575 10.5515 32.627 10.5515 32.186 10.1038L32.1309 10.0487C32 9.91782 31.814 9.84205 31.6279 9.84205C31.4419 9.84205 31.2627 9.92471 31.1318 10.0625L27.9345 13.5066C27.7003 13.7615 27.6865 14.1472 27.907 14.4158C29.23 16.007 30.0293 17.9426 30.2222 20.0091C30.2567 20.3535 30.5392 20.6221 30.8837 20.6359L35.5831 20.8081C35.7692 20.815 35.9552 20.7461 36.0861 20.6153C36.2239 20.4844 36.2997 20.3053 36.2997 20.1193V20.0366C36.2997 19.4029 36.8165 18.8863 37.4505 18.8863C38.0844 18.8863 38.5874 19.4029 38.5874 20.0366V21.8965Z" fill="#53C8A4"/>
</svg>
